<svg width="492" height="829" viewBox="0 0 492 829" fill="none" xmlns="http://www.w3.org/2000/svg">
<g clip-path="url(#clip0_12_2)">
<path d="M164.245 0C190.345 16.2386 215.708 32.4772 241.355 48.8978C241.355 41.9012 241.355 33.0649 241.355 23.5178C333.391 28.625 394.704 71.1771 433.913 146.265C460.892 197.931 459.501 252.251 458.702 306.955C457.9 361.932 439.558 413.619 423.697 465.805C418.005 484.533 414.89 503.942 410.389 523.971C297.099 523.971 182.438 523.971 66.4383 523.971C63.9268 490.244 67.6479 456.855 87.5285 428.357C105.233 402.978 127.813 380.456 149.157 357.409C166.426 338.764 186.787 322.439 202.72 302.919C233.877 264.746 238.361 221.213 226.097 173.125C224.534 177.394 223.771 179.547 222.96 181.685C207.143 223.378 183.275 237.543 136.014 234.63C129.826 234.248 122.46 237.497 117.136 241.024C109.626 246 103.554 252.848 96.792 258.821C80.4903 273.219 68.899 275.222 53.6991 266.355C37.4924 256.9 28.7301 237.405 34.5198 221.404C36.8028 215.094 40.6473 208.933 45.1338 203.713C73.0024 171.291 100.827 138.818 129.622 107.115C139.223 96.5438 151.14 87.5982 162.94 79.0367C170.28 73.7117 174.674 67.2334 169.634 60.5535C155.732 42.1281 161.362 22.229 162.073 1.28876C162.036 8.18084e-08 163.509 0 164.245 0Z" fill="#000640"/>
<path d="M0 794.623C10.1121 778.841 24.6007 775.723 42.5501 775.796C180.333 776.358 318.12 776.187 455.905 775.993C472.052 775.971 484.975 779.343 490.998 795.774C492 807.014 492 817.968 492 828.91C328 828.897 164 828.897 0 828.897C0 817.84 0 806.886 0 794.623Z" fill="#6FA0D0"/>
<path d="M253.365 751.898C178.808 751.898 105.724 751.898 28.7788 751.898C31.4701 737.194 30.681 722.052 37.0948 710.333C52.56 682.075 71.2115 655.312 89.1745 628.291C90.8194 625.816 96.7479 624.819 100.691 624.811C199.351 624.626 298.012 624.607 396.672 624.872C400.868 624.883 406.986 626.776 408.937 629.693C423.159 650.948 437.63 672.173 449.842 694.445C459.419 711.912 463.627 731.178 460.35 751.898C391.158 751.898 322.998 751.898 253.365 751.898Z" fill="#3B6FA0"/>
<path d="M250.419 600.66C195.954 600.66 142.961 600.693 89.9695 600.609C84.6135 600.601 79.1299 600.436 73.9283 599.386C59.3687 596.447 51.3133 586.259 52.1617 572.681C52.9431 560.176 63.746 550.169 78.0401 549.086C83.4038 548.68 88.8288 548.955 94.2258 548.955C198.247 548.95 302.269 548.934 406.291 548.968C424.548 548.973 436.069 555.937 439.05 568.476C443.245 586.124 430.961 599.862 409.392 600.533C390.768 601.112 372.106 600.659 353.46 600.66C319.604 600.661 285.748 600.66 250.419 600.66Z" fill="#003B6F"/>
</g>
<defs>
<clipPath id="clip0_12_2">
<rect width="492" height="829" fill="white"/>
</clipPath>
</defs>
</svg>
